name C:/MyDriveSym/Projects/mobilecap/Data\Session20210827_0002\mocap\ForceDataProcessed\walkingTS1_forces.mot
datacolumns 19
datarows 19
range 0.49200000 0.50100000
endheader 
time	R_ground_force_vx	R_ground_force_vy	R_ground_force_vz	R_ground_force_px	R_ground_force_py	R_ground_force_pz	R_ground_torque_x	R_ground_torque_y	R_ground_torque_z	L_ground_force_vx	L_ground_force_vy	L_ground_force_vz	L_ground_force_px	L_ground_force_py	L_ground_force_pz	L_ground_torque_x	L_ground_torque_y	L_ground_torque_z	
          0.49200000	        -97.96183300	        555.04129100	        -14.38554100	          0.17334400	          0.00600000	         -0.19502200	          0.00000000	          0.79868300	          0.00000000	          0.00000000	          0.00000000	          0.00000000	          0.72774900	          0.00000000	         -0.28166700	          0.00000000	          0.00000000	          0.00000000	
          0.49250000	        -98.00429100	        556.01238200	        -14.47339500	          0.17350200	          0.00600000	         -0.19504200	          0.00000000	          0.80729500	          0.00000000	          0.00000000	          0.00000000	          0.00000000	          0.72774900	          0.00000000	         -0.28166700	          0.00000000	          0.00000000	          0.00000000	
          0.49300000	        -98.04399900	        556.97674500	        -14.55965400	          0.17366000	          0.00600000	         -0.19506300	          0.00000000	          0.81592800	          0.00000000	          0.00000000	          0.00000000	          0.00000000	          0.72774900	          0.00000000	         -0.28166700	          0.00000000	          0.00000000	          0.00000000	
          0.49350000	        -98.08096800	        557.93435700	        -14.64432800	          0.17381700	          0.00600000	         -0.19508400	          0.00000000	          0.82458000	          0.00000000	          0.00000000	          0.00000000	          0.00000000	          0.72774900	          0.00000000	         -0.28166700	          0.00000000	          0.00000000	          0.00000000	
          0.49400000	        -98.11521200	        558.88519300	        -14.72742500	          0.17397400	          0.00600000	         -0.19510500	          0.00000000	          0.83324900	          0.00000000	          0.00000000	          0.00000000	          0.00000000	          0.72774900	          0.00000000	         -0.28166700	          0.00000000	          0.00000000	          0.00000000	
          0.49450000	        -98.14674200	        559.82923100	        -14.80895500	          0.17413000	          0.00600000	         -0.19512600	          0.00000000	          0.84193500	          0.00000000	          0.00000000	          0.00000000	          0.00000000	          0.72774900	          0.00000000	         -0.28166700	          0.00000000	          0.00000000	          0.00000000	
          0.49500000	        -98.17557200	        560.76644600	        -14.88892900	          0.17428600	          0.00600000	         -0.19514700	          0.00000000	          0.85063700	          0.00000000	          0.00000000	          0.00000000	          0.00000000	          0.72774900	          0.00000000	         -0.28166700	          0.00000000	          0.00000000	          0.00000000	
          0.49550000	        -98.20171600	        561.69681400	        -14.96735600	          0.17444100	          0.00600000	         -0.19516800	          0.00000000	          0.85935300	          0.00000000	          0.00000000	          0.00000000	          0.00000000	          0.72774900	          0.00000000	         -0.28166700	          0.00000000	          0.00000000	          0.00000000	
          0.49600000	        -98.22518600	        562.62031200	        -15.04424700	          0.17459600	          0.00600000	         -0.19519000	          0.00000000	          0.86808200	          0.00000000	          0.00000000	          0.00000000	          0.00000000	          0.72774900	          0.00000000	         -0.28166700	          0.00000000	          0.00000000	          0.00000000	
          0.49650000	        -98.24599700	        563.53691600	        -15.11961500	          0.17475100	          0.00600000	         -0.19521100	          0.00000000	          0.87682300	          0.00000000	          0.00000000	          0.00000000	          0.00000000	          0.72774900	          0.00000000	         -0.28166700	          0.00000000	          0.00000000	          0.00000000	
          0.49700000	        -98.26416200	        564.44660200	        -15.19346900	          0.17490500	          0.00600000	         -0.19523300	          0.00000000	          0.88557500	          0.00000000	          0.00000000	          0.00000000	          0.00000000	          0.72774900	          0.00000000	         -0.28166700	          0.00000000	          0.00000000	          0.00000000	
          0.49750000	        -98.27969500	        565.34934600	        -15.26582200	          0.17505800	          0.00600000	         -0.19525500	          0.00000000	          0.89433600	          0.00000000	          0.00000000	          0.00000000	          0.00000000	          0.72774900	          0.00000000	         -0.28166700	          0.00000000	          0.00000000	          0.00000000	
          0.49800000	        -98.29261100	        566.24512400	        -15.33668700	          0.17521200	          0.00600000	         -0.19527700	          0.00000000	          0.90310600	          0.00000000	          0.00000000	          0.00000000	          0.00000000	          0.72774900	          0.00000000	         -0.28166700	          0.00000000	          0.00000000	          0.00000000	
          0.49850000	        -98.30292400	        567.13391200	        -15.40607400	          0.17536400	          0.00600000	         -0.19529900	          0.00000000	          0.91188400	          0.00000000	          0.00000000	          0.00000000	          0.00000000	          0.72774900	          0.00000000	         -0.28166700	          0.00000000	          0.00000000	          0.00000000	
          0.49900000	        -98.31064900	        568.01568700	        -15.47399800	          0.17551700	          0.00600000	         -0.19532200	          0.00000000	          0.92066800	          0.00000000	          0.00000000	          0.00000000	          0.00000000	          0.72774900	          0.00000000	         -0.28166700	          0.00000000	          0.00000000	          0.00000000	
          0.49950000	        -98.31580100	        568.89042400	        -15.54047200	          0.17566900	          0.00600000	         -0.19534400	          0.00000000	          0.92945700	          0.00000000	          0.00000000	          0.00000000	          0.00000000	          0.72774900	          0.00000000	         -0.28166700	          0.00000000	          0.00000000	          0.00000000	
          0.50000000	        -98.31839400	        569.75810200	        -15.60550800	          0.17582000	          0.00600000	         -0.19536700	          0.00000000	          0.93825000	          0.00000000	          0.00000000	          0.00000000	          0.00000000	          0.72774900	          0.00000000	         -0.28166700	          0.00000000	          0.00000000	          0.00000000	
          0.50050000	        -98.31844500	        570.61869400	        -15.66912000	          0.17597100	          0.00600000	         -0.19538900	          0.00000000	          0.94704700	          0.00000000	          0.00000000	          0.00000000	          0.00000000	          0.72774900	          0.00000000	         -0.28166700	          0.00000000	          0.00000000	          0.00000000	
          0.50100000	        -98.31596800	        571.47218000	        -15.73132300	          0.17612200	          0.00600000	         -0.19541200	          0.00000000	          0.95584500	          0.00000000	          0.00000000	          0.00000000	          0.00000000	          0.72774900	          0.00000000	         -0.28166700	          0.00000000	          0.00000000	          0.00000000	
